<?xml version="1.0" encoding="utf-8"?>
<!-- Generator: Adobe Illustrator 18.0.0, SVG Export Plug-In . SVG Version: 6.00 Build 0)  -->
<!DOCTYPE svg PUBLIC "-//W3C//DTD SVG 1.1//EN" "http://www.w3.org/Graphics/SVG/1.1/DTD/svg11.dtd">
<svg version="1.1" id="Layer_1" xmlns="http://www.w3.org/2000/svg" xmlns:xlink="http://www.w3.org/1999/xlink" x="0px" y="0px"
	 viewBox="0 0 229.1 55.4" enable-background="new 0 0 229.1 55.4" xml:space="preserve">
<g>
	<g>
		<g>
			<g>
				<g>
					<path fill="#FFFFFF" d="M89.9,18.9c0,2.5-0.8,4.1-2.4,4.9c-1.2,0.6-3.6,0.9-7.2,0.9h-4.3c-2.7,0-4.7-0.2-6-0.7
						c-1.4-0.5-2.3-1.4-2.8-2.8c-0.5-1.2-0.7-3.2-0.7-6c0-2.9,0.2-5,0.6-6.3c0.5-1.5,1.4-2.5,2.7-3.1c1.3-0.5,3.4-0.8,6.2-0.8h4.3
						c3.4,0,5.9,0.5,7.4,1.5c1.4,0.9,2.1,2.3,2.1,4.3h-3.1c0-1.2-0.6-2.1-1.8-2.4C84.1,8.2,82.6,8,80.2,8h-4c-2.7,0-4.4,0.3-5.2,0.8
						c-1,0.6-1.5,2.1-1.5,4.4V16c0,2.6,0.4,4.2,1.4,4.9c0.7,0.5,2.5,0.8,5.2,0.8h4.1c2.5,0,4-0.1,4.8-0.3c1.2-0.4,1.8-1.2,1.8-2.5
						H89.9z M82.8,16H69.5l0-2.8h13.3V16z"/>
					<path fill="#FFFFFF" d="M114.9,18.9c0,2.2-0.6,3.7-1.7,4.6c-1,0.8-2.6,1.2-4.8,1.2h-9.8c-4.3,0-6.4-1.8-6.4-5.5h3.4
						c0,1.7,1.2,2.6,3.6,2.6h8.4c1.2,0,2-0.2,2.6-0.5c0.8-0.4,1.1-1.2,1.1-2.3c0-1.2-0.7-2.1-2-2.5c-0.8-0.3-2-0.4-3.5-0.4
						c-0.6,0-1.6,0-2.8,0.1c-1.2,0-2.2,0.1-2.8,0.1c-2.5,0-4.3-0.3-5.6-0.9c-1.7-0.9-2.6-2.4-2.6-4.6c0-2,0.6-3.4,1.8-4.3
						c1-0.7,2.6-1.1,4.7-1.1h9.3c4.6,0,6.9,1.8,6.9,5.5h-3.5c0-1.7-1.2-2.6-3.7-2.6h-8.8c-2,0-3,0.8-3,2.5c0,1.8,1.8,2.6,5.5,2.6
						c0.6,0,1.4,0,2.6-0.1c1.1-0.1,2-0.1,2.6-0.1c2.5,0,4.4,0.3,5.7,1C114,15.1,114.9,16.7,114.9,18.9z"/>
					<path fill="#FFFFFF" d="M137.3,8.1h-8.8v16.6h-3.3V8.1h-8.8v-3h20.9V8.1z"/>
					<path fill="#FFFFFF" d="M162.1,18.9c0,2.5-0.8,4.1-2.4,4.9c-1.2,0.6-3.6,0.9-7.2,0.9h-4.3c-2.7,0-4.7-0.2-6-0.7
						c-1.4-0.5-2.3-1.4-2.8-2.8c-0.5-1.2-0.7-3.2-0.7-6c0-2.9,0.2-5,0.6-6.3c0.5-1.5,1.4-2.5,2.7-3.1c1.3-0.5,3.4-0.8,6.2-0.8h4.3
						c3.4,0,5.9,0.5,7.4,1.5c1.4,0.9,2.1,2.3,2.1,4.3h-3.1c0-1.2-0.6-2.1-1.8-2.4c-0.8-0.2-2.3-0.3-4.7-0.3h-4
						c-2.7,0-4.4,0.3-5.2,0.8c-1,0.6-1.5,2.1-1.5,4.4V16c0,2.6,0.4,4.2,1.4,4.9c0.7,0.5,2.5,0.8,5.2,0.8h4.1c2.5,0,4-0.1,4.8-0.3
						c1.2-0.4,1.8-1.2,1.8-2.5H162.1z M155,16h-13.3l0-2.8H155V16z"/>
					<path fill="#FFFFFF" d="M187.4,18.9c0,2.5-0.8,4.1-2.4,4.9c-1.2,0.6-3.6,0.9-7.2,0.9h-4.3c-2.7,0-4.7-0.2-6-0.7
						c-1.4-0.5-2.3-1.4-2.8-2.8c-0.5-1.2-0.7-3.2-0.7-6c0-2.9,0.2-5,0.6-6.3c0.5-1.5,1.4-2.5,2.7-3.1c1.3-0.5,3.4-0.8,6.2-0.8h4.3
						c3.4,0,5.9,0.5,7.4,1.5c1.4,0.9,2.1,2.3,2.1,4.3h-3.1c0-1.2-0.6-2.1-1.8-2.4c-0.8-0.2-2.3-0.3-4.7-0.3h-4
						c-2.7,0-4.4,0.3-5.2,0.8c-1,0.6-1.5,2.1-1.5,4.4V16c0,2.6,0.4,4.2,1.4,4.9c0.7,0.5,2.5,0.8,5.2,0.8h4.1c2.5,0,4-0.1,4.8-0.3
						c1.2-0.4,1.8-1.2,1.8-2.5H187.4z M180.3,16H167l0-2.8h13.3V16z"/>
					<path fill="#FFFFFF" d="M223.8,24.7l0-10.1c0-2-0.4-3.6-1.3-4.6c-1-1.3-2.8-2-5.2-2h-0.9c-2.5,0-4.2,0.7-5.2,2.1
						c-0.8,1.1-1.1,3.1-1.1,5.8v8.8h-3.1v-8.5c0-2.6-0.4-4.6-1.2-5.8c-1-1.5-2.6-2.3-5-2.3h-1c-2.5,0-4.2,0.8-5.2,2.3
						c-0.8,1.2-1.2,3.2-1.2,5.9l0,8.4h-3.3V5.1h3.3v2.5c1.2-1.7,3.2-2.5,5.9-2.5h1.8c3.5,0,5.9,1.2,7.2,3.7c1.4-2.5,3.7-3.7,7.2-3.7
						h2.4c5.8,0,8.7,3.2,8.7,9.5v10H223.8z"/>
				</g>
			</g>
			<g>
				<g>
					<path fill="#FFFFFF" d="M80.9,43.5c0,1.4-0.4,2.3-1.1,2.9c-0.6,0.5-1.6,0.7-3,0.7h-6.2c-2.7,0-4.1-1.2-4.1-3.5h2.1
						c0,1.1,0.8,1.6,2.3,1.6h5.4c0.7,0,1.3-0.1,1.7-0.3c0.5-0.3,0.7-0.8,0.7-1.4c0-0.8-0.4-1.3-1.3-1.6c-0.5-0.2-1.3-0.3-2.2-0.3
						c-0.4,0-1,0-1.8,0c-0.8,0-1.4,0-1.8,0c-1.6,0-2.7-0.2-3.5-0.6c-1.1-0.6-1.6-1.5-1.6-2.9c0-1.3,0.4-2.2,1.1-2.7
						c0.6-0.5,1.6-0.7,3-0.7h5.9c2.9,0,4.4,1.2,4.4,3.5h-2.2c0-1.1-0.8-1.6-2.3-1.6h-5.6c-1.3,0-1.9,0.5-1.9,1.6
						c0,1.1,1.2,1.7,3.5,1.7c0.4,0,0.9,0,1.6-0.1c0.7,0,1.3-0.1,1.6-0.1c1.6,0,2.8,0.2,3.6,0.7C80.3,41,80.9,42.1,80.9,43.5z"/>
					<path fill="#FFFFFF" d="M97.4,41.7c0,1.7-0.2,2.9-0.6,3.6c-0.4,0.8-1,1.3-2,1.5c-0.7,0.2-2,0.3-3.6,0.3h-2.3
						c-1.7,0-3-0.1-3.8-0.4c-0.9-0.3-1.5-0.9-1.8-1.8c-0.3-0.8-0.4-2.1-0.4-3.8c0-1.8,0.1-3.2,0.4-4c0.3-0.9,0.9-1.6,1.7-2
						c0.8-0.4,2.1-0.5,3.9-0.5h2.3c1.9,0,3.3,0.2,4.2,0.6c0.9,0.4,1.4,1.1,1.7,2.2C97.3,38.2,97.4,39.6,97.4,41.7z M95.3,41.6v-1.2
						c0-1.2-0.1-2-0.4-2.5c-0.2-0.5-0.7-0.8-1.3-1c-0.4-0.1-1.3-0.2-2.5-0.2h-2.1c-1.7,0-2.8,0.2-3.2,0.5c-0.5,0.4-0.8,1.5-0.8,3.1
						v1.2c0,1.6,0.3,2.6,0.8,3c0.4,0.3,1.5,0.5,3.2,0.5h2.1c1.2,0,2,0,2.5-0.1c0.6-0.1,1.1-0.4,1.3-0.9
						C95.2,43.6,95.3,42.7,95.3,41.6z"/>
					<path fill="#FFFFFF" d="M101.7,39.9h8.7v1.8h-8.7v5.5h-2l0-6.4c0-1.7,0.1-2.9,0.4-3.7c0.3-0.9,0.9-1.5,1.8-1.8
						c0.8-0.3,2.1-0.5,3.9-0.5h2.3c2.2,0,3.8,0.3,4.6,0.8c0.8,0.5,1.3,1.5,1.5,3h-2c-0.2-0.8-0.6-1.4-1.3-1.6
						c-0.5-0.2-1.4-0.2-2.9-0.2h-2.1c-1.7,0-2.7,0.2-3.2,0.5C102,37.5,101.7,38.4,101.7,39.9z"/>
					<path fill="#FFFFFF" d="M127.2,36.7h-5.6v10.5h-2.1V36.7h-5.6v-1.9h13.3V36.7z"/>
					<path fill="#FFFFFF" d="M146.8,47.2h-10.5V34.8h2.1v10.5h8.4V47.2z"/>
					<path fill="#FFFFFF" d="M150.1,47.2H148V34.8h2.1V47.2z"/>
					<path fill="#FFFFFF" d="M173.8,47.2l0-6.4c0-1.3-0.3-2.3-0.8-2.9c-0.7-0.8-1.8-1.2-3.3-1.2h-0.6c-1.6,0-2.7,0.4-3.3,1.3
						c-0.5,0.7-0.7,1.9-0.7,3.7v5.6h-2v-5.4c0-1.7-0.2-2.9-0.7-3.7c-0.6-1-1.7-1.5-3.2-1.5h-0.6c-1.6,0-2.7,0.5-3.3,1.4
						c-0.5,0.8-0.7,2-0.7,3.7l0,5.4h-2.1V34.8h2.1v1.6c0.8-1,2-1.6,3.7-1.6h1.2c2.2,0,3.7,0.8,4.6,2.4c0.9-1.6,2.4-2.4,4.5-2.4h1.5
						c3.7,0,5.5,2,5.5,6v6.3H173.8z"/>
					<path fill="#FFFFFF" d="M180.5,47.2h-2.1V34.8h2.1V47.2z"/>
					<path fill="#FFFFFF" d="M195.4,36.7h-5.6v10.5h-2.1V36.7h-5.6v-1.9h13.3V36.7z"/>
					<path fill="#FFFFFF" d="M211.1,43.5c0,1.6-0.5,2.6-1.5,3.1c-0.8,0.4-2.3,0.6-4.6,0.6h-2.7c-1.7,0-3-0.1-3.8-0.4
						c-0.9-0.3-1.5-0.9-1.8-1.8c-0.3-0.8-0.4-2.1-0.4-3.8c0-1.9,0.1-3.2,0.4-4c0.3-0.9,0.9-1.6,1.7-1.9c0.8-0.3,2.1-0.5,3.9-0.5h2.7
						c2.2,0,3.7,0.3,4.7,0.9c0.9,0.6,1.3,1.5,1.3,2.7h-2c0-0.8-0.4-1.3-1.1-1.5c-0.5-0.1-1.5-0.2-3-0.2h-2.5c-1.7,0-2.8,0.2-3.3,0.5
						c-0.6,0.4-0.9,1.3-0.9,2.8v1.8c0,1.7,0.3,2.7,0.9,3.1c0.5,0.3,1.6,0.5,3.3,0.5h2.6c1.6,0,2.6-0.1,3-0.2
						c0.8-0.2,1.1-0.8,1.1-1.6H211.1z M206.6,41.7h-8.4l0-1.8h8.4V41.7z"/>
					<path fill="#FFFFFF" d="M226.8,41.8c0,2.1-0.3,3.5-1,4.2c-0.7,0.8-2.1,1.2-4.1,1.2h-8.7V34.8h8.4c1.7,0,3,0.3,3.8,0.8
						c0.7,0.5,1.2,1.3,1.4,2.4C226.7,38.6,226.8,39.9,226.8,41.8z M224.7,41.7v-1.6c0-1.4-0.2-2.3-0.7-2.8c-0.5-0.5-1.4-0.7-2.8-0.7
						H215v8.6h6.3c1.4,0,2.3-0.2,2.8-0.7C224.5,44.1,224.7,43.2,224.7,41.7z"/>
				</g>
			</g>
		</g>
		<g>
			<g>
				<path fill="#FFFFFF" d="M48,38.6c-0.2,0-0.3,0-0.4,0c-3.1,0-6.3,0-9.4,0c-0.2,0-0.3,0-0.5,0.1c-0.8,0.8-1.7,1.3-2.6,1.7
					c-1.1,0.5-2.3,0.8-3.5,1c-0.9,0.1-1.9,0.2-2.8,0.2c-1,0-2.1-0.2-3.1-0.6c-1.1-0.3-2-0.8-3-1.5c-1.5-1.1-2.6-2.5-3.3-4.2
					c0-0.1,0-0.1-0.1-0.2c0.1,0,0.2,0,0.3,0c9.5,0,19.1,0,28.6,0c0.1,0,0.2,0,0.3,0c0.4,0,0.4,0,0.5-0.4c0.1-0.4,0.1-0.9,0.2-1.3
					c0.2-1.1,0.3-2.2,0.2-3.3c-0.1-2-0.6-4-1.5-5.8c-0.7-1.5-1.6-2.9-2.6-4.2c-1.3-1.6-2.9-3-4.6-4.1c-1.5-1-3.2-1.7-5-2.2
					c-1.1-0.3-2.2-0.6-3.3-0.7c-1-0.1-2-0.2-3-0.1c-0.1,0-0.2,0-0.3,0c-1,0-1.9,0.1-2.9,0.3c-0.5,0.1-1,0.2-1.5,0.3
					c-0.8,0.2-1.5,0.4-2.2,0.6c-0.5,0.1-0.5,0.2-0.7-0.3c-0.6-1.2-1.3-2.5-1.9-3.7c-0.2-0.4-0.4-0.9-0.7-1.3c0-0.1-0.1-0.2-0.1-0.3
					c0.2-0.1,0.4-0.2,0.6-0.3C20.8,8,21.9,7.7,23,7.4c0.7-0.2,1.5-0.3,2.2-0.4c1.7-0.2,3.4-0.3,5.1-0.3c0.6,0,1.3,0.1,1.9,0.2
					C32.8,7,33.4,7.1,34,7.2c0.8,0.1,1.5,0.3,2.3,0.5c0.6,0.1,1.2,0.3,1.8,0.5c1.7,0.5,3.3,1.2,4.8,2c1.7,0.9,3.2,1.9,4.7,3.1
					c1.7,1.4,3.3,3,4.6,4.9c1.3,1.8,2.3,3.8,3.1,6c0.3,0.9,0.5,1.8,0.7,2.7c0.2,0.6,0.2,1.3,0.3,2c0.1,0.8,0.1,1.7,0.2,2.5
					c0,0.4,0,0.8-0.1,1.2c0,0.5-0.1,1-0.1,1.5c-0.1,0.8-0.2,1.6-0.4,2.4c-0.4,1.9-1.1,3.6-1.9,5.3c-0.9,1.7-2,3.3-3.2,4.8
					c-0.7,0.8-1.4,1.6-2.2,2.3c-1.3,1.2-2.8,2.3-4.3,3.2c-0.6,0.3-1.1,0.6-1.7,0.9c-0.1,0-0.2,0.1-0.3,0.1c-0.9-1.8-1.9-3.6-2.8-5.4
					c0.1-0.1,0.1-0.1,0.2-0.1c1.4-0.8,2.8-1.6,4-2.7c1.9-1.6,3.4-3.4,4.4-5.7C47.9,39,48,38.8,48,38.6z"/>
				<path fill="#FFFFFF" d="M40.1,27.6c-6.9,0-13.9,0-20.8,0c0.1-0.2,0.1-0.3,0.2-0.5c0.3-0.8,0.8-1.5,1.3-2.1c0.9-1,2-1.8,3.1-2.5
					c1.1-0.6,2.3-1,3.5-1.3c1-0.2,2-0.3,3-0.2c1.5,0.1,3,0.4,4.3,1c1.6,0.7,2.9,1.8,4,3.1c0.5,0.6,0.9,1.3,1.2,2
					C40,27.4,40,27.5,40.1,27.6z"/>
			</g>
			<circle fill="none" cx="31.4" cy="30.4" r="25.1"/>
		</g>
	</g>
	<rect x="66.5" y="29.5" fill="#FFFFFF" width="160.3" height="0.8"/>
</g>
</svg>
