<?xml version="1.0" encoding="utf-8"?>
<!-- Generator: Adobe Illustrator 18.0.0, SVG Export Plug-In . SVG Version: 6.00 Build 0)  -->
<!DOCTYPE svg PUBLIC "-//W3C//DTD SVG 1.1//EN" "http://www.w3.org/Graphics/SVG/1.1/DTD/svg11.dtd">
<svg version="1.1" id="Layer_1" xmlns="http://www.w3.org/2000/svg" xmlns:xlink="http://www.w3.org/1999/xlink" x="0px" y="0px"
	 viewBox="0 0 108 35" enable-background="new 0 0 108 35" xml:space="preserve">
<g>
	<g>
		<g>
			<g>
				<g>
					<path fill="#FFFFFF" d="M41.3,13.4c0,1.2-0.4,2-1.2,2.3c-0.6,0.3-1.7,0.4-3.4,0.4h-2.1c-1.3,0-2.2-0.1-2.8-0.3
						c-0.6-0.2-1.1-0.7-1.3-1.3c-0.2-0.6-0.3-1.5-0.3-2.8c0-1.4,0.1-2.4,0.3-3c0.2-0.7,0.6-1.2,1.3-1.5c0.6-0.3,1.6-0.4,3-0.4h2.1
						c1.6,0,2.8,0.2,3.5,0.7c0.7,0.4,1,1.1,1,2h-1.5c0-0.6-0.3-1-0.8-1.2c-0.4-0.1-1.1-0.2-2.3-0.2h-1.9c-1.3,0-2.1,0.1-2.4,0.4
						c-0.5,0.3-0.7,1-0.7,2.1V12c0,1.2,0.2,2,0.7,2.3c0.4,0.3,1.2,0.4,2.4,0.4h1.9c1.2,0,1.9-0.1,2.3-0.2c0.6-0.2,0.8-0.6,0.8-1.2
						H41.3z M38,12h-6.3l0-1.4H38V12z"/>
					<path fill="#FFFFFF" d="M53.2,13.4c0,1-0.3,1.7-0.8,2.2c-0.5,0.4-1.2,0.6-2.3,0.6h-4.6c-2,0-3.1-0.9-3-2.6h1.6
						c0,0.8,0.6,1.2,1.7,1.2h4c0.6,0,1-0.1,1.2-0.2c0.4-0.2,0.5-0.6,0.5-1.1c0-0.6-0.3-1-0.9-1.2C50.3,12.1,49.7,12,49,12
						c-0.3,0-0.7,0-1.3,0c-0.6,0-1,0-1.3,0c-1.2,0-2.1-0.1-2.6-0.4c-0.8-0.4-1.2-1.1-1.2-2.2c0-1,0.3-1.6,0.8-2.1
						c0.5-0.4,1.2-0.5,2.2-0.5h4.4c2.2,0,3.3,0.9,3.3,2.6h-1.7c0-0.8-0.6-1.2-1.7-1.2h-4.2c-1,0-1.4,0.4-1.4,1.2
						c0,0.8,0.9,1.3,2.6,1.3c0.3,0,0.7,0,1.2,0c0.5,0,1,0,1.2,0c1.2,0,2.1,0.2,2.7,0.5C52.8,11.6,53.2,12.3,53.2,13.4z"/>
					<path fill="#FFFFFF" d="M63.9,8.3h-4.2v7.9h-1.6V8.3h-4.2V6.9h9.9V8.3z"/>
					<path fill="#FFFFFF" d="M75.6,13.4c0,1.2-0.4,2-1.2,2.3c-0.6,0.3-1.7,0.4-3.4,0.4H69c-1.3,0-2.2-0.1-2.8-0.3
						c-0.6-0.2-1.1-0.7-1.3-1.3c-0.2-0.6-0.3-1.5-0.3-2.8c0-1.4,0.1-2.4,0.3-3c0.2-0.7,0.6-1.2,1.3-1.5c0.6-0.3,1.6-0.4,3-0.4h2.1
						c1.6,0,2.8,0.2,3.5,0.7c0.7,0.4,1,1.1,1,2h-1.5c0-0.6-0.3-1-0.8-1.2c-0.4-0.1-1.1-0.2-2.3-0.2h-1.9c-1.3,0-2.1,0.1-2.4,0.4
						c-0.5,0.3-0.7,1-0.7,2.1V12c0,1.2,0.2,2,0.7,2.3c0.4,0.3,1.2,0.4,2.4,0.4H71c1.2,0,1.9-0.1,2.3-0.2c0.6-0.2,0.8-0.6,0.8-1.2
						H75.6z M72.3,12h-6.3l0-1.4h6.3V12z"/>
					<path fill="#FFFFFF" d="M87.6,13.4c0,1.2-0.4,2-1.2,2.3c-0.6,0.3-1.7,0.4-3.4,0.4H81c-1.3,0-2.2-0.1-2.8-0.3
						c-0.6-0.2-1.1-0.7-1.3-1.3c-0.2-0.6-0.3-1.5-0.3-2.8c0-1.4,0.1-2.4,0.3-3c0.2-0.7,0.6-1.2,1.3-1.5c0.6-0.3,1.6-0.4,3-0.4h2.1
						c1.6,0,2.8,0.2,3.5,0.7c0.7,0.4,1,1.1,1,2h-1.5c0-0.6-0.3-1-0.8-1.2c-0.4-0.1-1.1-0.2-2.3-0.2h-1.9c-1.3,0-2.1,0.1-2.4,0.4
						c-0.5,0.3-0.7,1-0.7,2.1V12c0,1.2,0.2,2,0.7,2.3c0.4,0.3,1.2,0.4,2.4,0.4H83c1.2,0,1.9-0.1,2.3-0.2c0.6-0.2,0.8-0.6,0.8-1.2
						H87.6z M84.3,12H78l0-1.4h6.3V12z"/>
					<path fill="#FFFFFF" d="M104.9,16.1l0-4.8c0-1-0.2-1.7-0.6-2.2c-0.5-0.6-1.3-0.9-2.4-0.9h-0.4c-1.2,0-2,0.3-2.4,1
						c-0.4,0.5-0.5,1.5-0.5,2.8v4.2H97v-4.1c0-1.2-0.2-2.2-0.6-2.8c-0.5-0.7-1.3-1.1-2.4-1.1h-0.5c-1.2,0-2,0.4-2.4,1.1
						c-0.4,0.6-0.6,1.5-0.6,2.8l0,4H89V6.9h1.5V8c0.6-0.8,1.5-1.2,2.8-1.2h0.9c1.7,0,2.8,0.6,3.4,1.8c0.6-1.2,1.8-1.8,3.4-1.8h1.1
						c2.8,0,4.1,1.5,4.1,4.5v4.8H104.9z"/>
				</g>
			</g>
			<g>
				<g>
					<path fill="#FFFFFF" d="M37,25.1c0,0.6-0.2,1.1-0.5,1.4c-0.3,0.2-0.8,0.4-1.4,0.4h-2.9c-1.3,0-1.9-0.6-1.9-1.7h1
						c0,0.5,0.4,0.8,1.1,0.8h2.5c0.4,0,0.6,0,0.8-0.1c0.2-0.1,0.3-0.4,0.3-0.7c0-0.4-0.2-0.6-0.6-0.8c-0.2-0.1-0.6-0.1-1.1-0.1
						c-0.2,0-0.5,0-0.8,0c-0.4,0-0.7,0-0.8,0c-0.7,0-1.3-0.1-1.7-0.3c-0.5-0.3-0.8-0.7-0.8-1.4c0-0.6,0.2-1,0.5-1.3
						c0.3-0.2,0.8-0.3,1.4-0.3h2.8c1.4,0,2.1,0.6,2.1,1.7H36c0-0.5-0.4-0.8-1.1-0.8h-2.6c-0.6,0-0.9,0.3-0.9,0.8
						c0,0.5,0.6,0.8,1.7,0.8c0.2,0,0.4,0,0.8,0c0.3,0,0.6,0,0.8,0c0.8,0,1.3,0.1,1.7,0.3C36.8,23.9,37,24.4,37,25.1z"/>
					<path fill="#FFFFFF" d="M44.9,24.2c0,0.8-0.1,1.4-0.3,1.7c-0.2,0.4-0.5,0.6-0.9,0.7c-0.4,0.1-0.9,0.2-1.7,0.2h-1.1
						c-0.8,0-1.4-0.1-1.8-0.2c-0.4-0.2-0.7-0.4-0.8-0.8c-0.1-0.4-0.2-1-0.2-1.8c0-0.9,0.1-1.5,0.2-1.9c0.1-0.4,0.4-0.8,0.8-0.9
						c0.4-0.2,1-0.3,1.9-0.3H42c0.9,0,1.6,0.1,2,0.3c0.4,0.2,0.7,0.5,0.8,1C44.9,22.6,44.9,23.2,44.9,24.2z M43.9,24.2v-0.6
						c0-0.6-0.1-1-0.2-1.2c-0.1-0.2-0.3-0.4-0.6-0.5c-0.2-0.1-0.6-0.1-1.2-0.1h-1c-0.8,0-1.3,0.1-1.5,0.3c-0.3,0.2-0.4,0.7-0.4,1.5
						v0.6c0,0.8,0.1,1.2,0.4,1.4c0.2,0.2,0.7,0.2,1.5,0.2h1c0.6,0,1,0,1.2-0.1c0.3-0.1,0.5-0.2,0.6-0.4
						C43.8,25.1,43.9,24.7,43.9,24.2z"/>
					<path fill="#FFFFFF" d="M46.9,23.3h4.1v0.8h-4.1v2.6H46l0-3.1c0-0.8,0.1-1.4,0.2-1.8c0.1-0.4,0.4-0.7,0.8-0.9
						c0.4-0.2,1-0.2,1.8-0.2h1.1c1.1,0,1.8,0.1,2.2,0.4c0.4,0.2,0.6,0.7,0.7,1.4h-0.9c-0.1-0.4-0.3-0.6-0.6-0.8
						c-0.2-0.1-0.7-0.1-1.4-0.1h-1c-0.8,0-1.3,0.1-1.5,0.2C47.1,22.2,46.9,22.7,46.9,23.3z"/>
					<path fill="#FFFFFF" d="M59.1,21.8h-2.7v5h-1v-5h-2.6v-0.9h6.3V21.8z"/>
					<path fill="#FFFFFF" d="M68.4,26.8h-5v-5.9h1v5h4V26.8z"/>
					<path fill="#FFFFFF" d="M69.9,26.8h-1v-5.9h1V26.8z"/>
					<path fill="#FFFFFF" d="M81.2,26.8l0-3c0-0.6-0.1-1.1-0.4-1.4c-0.3-0.4-0.8-0.6-1.6-0.6H79c-0.8,0-1.3,0.2-1.6,0.6
						c-0.2,0.3-0.3,0.9-0.3,1.7v2.6h-0.9v-2.6c0-0.8-0.1-1.4-0.4-1.7c-0.3-0.5-0.8-0.7-1.5-0.7H74c-0.7,0-1.3,0.2-1.6,0.7
						c-0.2,0.4-0.4,1-0.4,1.8l0,2.5h-1v-5.9h1v0.7c0.4-0.5,1-0.7,1.8-0.7h0.6c1,0,1.8,0.4,2.2,1.1c0.4-0.7,1.1-1.1,2.2-1.1h0.7
						c1.8,0,2.6,1,2.6,2.9v3H81.2z"/>
					<path fill="#FFFFFF" d="M84.4,26.8h-1v-5.9h1V26.8z"/>
					<path fill="#FFFFFF" d="M91.4,21.8h-2.7v5h-1v-5h-2.6v-0.9h6.3V21.8z"/>
					<path fill="#FFFFFF" d="M98.9,25.1c0,0.8-0.2,1.2-0.7,1.5c-0.4,0.2-1.1,0.3-2.2,0.3h-1.3c-0.8,0-1.4-0.1-1.8-0.2
						c-0.4-0.2-0.7-0.4-0.8-0.8c-0.1-0.4-0.2-1-0.2-1.8c0-0.9,0.1-1.5,0.2-1.9c0.1-0.4,0.4-0.8,0.8-0.9c0.4-0.2,1-0.2,1.9-0.2H96
						c1,0,1.8,0.1,2.2,0.4c0.4,0.3,0.6,0.7,0.6,1.3h-0.9c0-0.4-0.2-0.6-0.5-0.7c-0.2-0.1-0.7-0.1-1.4-0.1h-1.2
						c-0.8,0-1.3,0.1-1.6,0.2c-0.3,0.2-0.4,0.6-0.4,1.3v0.8c0,0.8,0.1,1.3,0.4,1.5c0.2,0.2,0.7,0.2,1.6,0.2H96c0.7,0,1.2,0,1.4-0.1
						c0.4-0.1,0.5-0.4,0.5-0.8H98.9z M96.8,24.2h-4l0-0.9h4V24.2z"/>
					<path fill="#FFFFFF" d="M106.4,24.3c0,1-0.2,1.7-0.5,2c-0.3,0.4-1,0.6-2,0.6h-4.1v-5.9h4c0.8,0,1.4,0.1,1.8,0.4
						c0.3,0.2,0.6,0.6,0.7,1.1C106.3,22.8,106.4,23.4,106.4,24.3z M105.4,24.2v-0.7c0-0.7-0.1-1.1-0.3-1.3c-0.2-0.2-0.7-0.3-1.3-0.3
						h-2.9v4.1h3c0.7,0,1.1-0.1,1.3-0.4C105.3,25.4,105.4,24.9,105.4,24.2z"/>
				</g>
			</g>
		</g>
		<g>
			<g>
				<path fill="#FFFFFF" d="M21.5,22.8c-0.1,0-0.1,0-0.2,0c-1.5,0-3,0-4.5,0c-0.1,0-0.2,0-0.2,0.1c-0.4,0.4-0.8,0.6-1.3,0.8
					c-0.5,0.2-1.1,0.4-1.7,0.5c-0.4,0.1-0.9,0.1-1.3,0.1c-0.5,0-1-0.1-1.5-0.3c-0.5-0.2-1-0.4-1.4-0.7c-0.7-0.5-1.3-1.2-1.6-2
					c0,0,0-0.1,0-0.1c0.1,0,0.1,0,0.1,0c4.5,0,9.1,0,13.6,0c0,0,0.1,0,0.1,0c0.2,0,0.2,0,0.2-0.2c0-0.2,0.1-0.4,0.1-0.6
					c0.1-0.5,0.1-1,0.1-1.6c-0.1-1-0.3-1.9-0.7-2.8c-0.3-0.7-0.7-1.4-1.2-2c-0.6-0.8-1.4-1.4-2.2-1.9c-0.7-0.5-1.5-0.8-2.4-1.1
					c-0.5-0.2-1-0.3-1.6-0.3c-0.5-0.1-1-0.1-1.4-0.1c0,0-0.1,0-0.1,0c-0.5,0-0.9,0.1-1.4,0.1c-0.2,0-0.5,0.1-0.7,0.1
					C10,10.9,9.7,11,9.3,11.1C9.1,11.2,9.1,11.2,9,11c-0.3-0.6-0.6-1.2-0.9-1.8C8,9,7.9,8.8,7.8,8.6c0,0,0-0.1-0.1-0.2
					c0.1,0,0.2-0.1,0.3-0.1C8.5,8.2,9,8,9.6,7.9c0.4-0.1,0.7-0.1,1.1-0.2c0.8-0.1,1.6-0.1,2.4-0.1c0.3,0,0.6,0,0.9,0.1
					c0.3,0,0.5,0.1,0.8,0.1c0.4,0.1,0.7,0.1,1.1,0.2c0.3,0.1,0.6,0.1,0.9,0.2c0.8,0.2,1.6,0.6,2.3,0.9c0.8,0.4,1.5,0.9,2.2,1.5
					c0.8,0.7,1.5,1.4,2.2,2.3c0.6,0.9,1.1,1.8,1.5,2.8c0.1,0.4,0.3,0.9,0.4,1.3c0.1,0.3,0.1,0.6,0.1,0.9c0.1,0.4,0.1,0.8,0.1,1.2
					c0,0.2,0,0.4,0,0.6c0,0.2,0,0.5-0.1,0.7c0,0.4-0.1,0.8-0.2,1.1c-0.2,0.9-0.5,1.7-0.9,2.5c-0.4,0.8-0.9,1.6-1.5,2.3
					c-0.3,0.4-0.7,0.7-1.1,1.1c-0.6,0.6-1.3,1.1-2.1,1.5c-0.3,0.2-0.5,0.3-0.8,0.4c0,0-0.1,0-0.2,0.1c-0.4-0.9-0.9-1.7-1.3-2.6
					c0,0,0.1-0.1,0.1-0.1c0.7-0.4,1.3-0.8,1.9-1.3c0.9-0.8,1.6-1.6,2.1-2.7C21.4,22.9,21.4,22.8,21.5,22.8z"/>
				<path fill="#FFFFFF" d="M17.7,17.5c-3.3,0-6.6,0-9.9,0c0-0.1,0-0.1,0.1-0.2c0.2-0.4,0.4-0.7,0.6-1c0.4-0.5,0.9-0.9,1.5-1.2
					c0.5-0.3,1.1-0.5,1.7-0.6c0.5-0.1,1-0.1,1.4-0.1c0.7,0,1.4,0.2,2.1,0.5c0.8,0.3,1.4,0.8,1.9,1.5c0.2,0.3,0.4,0.6,0.6,1
					C17.6,17.4,17.6,17.5,17.7,17.5z"/>
			</g>
			<path fill="none" d="M25.4,17.3c1,7.8-5.6,14.3-13.4,13.4c-5.3-0.7-9.6-5-10.3-10.3C0.8,12.6,7.3,6,15.1,7
				C20.4,7.7,24.7,12,25.4,17.3z"/>
		</g>
	</g>
	<rect x="30.2" y="18.4" fill="#FFFFFF" width="76.1" height="0.4"/>
</g>
</svg>
