<svg xmlns="http://www.w3.org/2000/svg" viewBox="0 0 110 109.59"><defs><style>.cls-1{fill:none;}.cls-2{fill:#37bfde;}.cls-3{fill:#3ed0f5;}</style></defs><title>Asset 9</title><g id="Layer_2" data-name="Layer 2"><g id="Layer_1-2" data-name="Layer 1"><path class="cls-1" d="M62.82,74.59l.7-.91a3.25,3.25,0,0,1,.67-.62h-6l.08.7C58.47,76,61.33,76.5,62.82,74.59Z"/><path class="cls-2" d="M36.51,57c1.4-11.32,11.71-20.5,23-20.5H75.46l2.26-18.32C79,8.15,71.82,0,61.76,0S42.55,8.15,41.31,18.21L39,36.64H20.6C10.54,36.64,1.38,44.8.14,54.85S6,73.06,16.1,73.06H34.54v-.12Z"/><path class="cls-3" d="M93.9,36.53H59.55c-11.33,0-21.64,9.18-23,20.5l-2,15.91v.12L32.27,91.38c-1.24,10.06,5.91,18.21,16,18.21h0c10.06,0,19.22-8.15,20.46-18.21L70.38,77.7l0,0-2.58-4.14a2.16,2.16,0,0,0-.42-.48,2.57,2.57,0,0,0-3.17,0,3.25,3.25,0,0,0-.67.62l-.7.91c-1.49,1.91-4.35,1.39-4.59-.83l-.08-.7L55.77,51.23c-.24-2.2,2.32-3.95,4.14-2.84l13.1,8,5.64,3.42c1.84,1.12,1.15,4.07-1.11,4.73l-1.08.31a2.83,2.83,0,0,0-1.82,4l2.56,4.1H89.4c10.06,0,19.21-8.15,20.46-18.2S104,36.53,93.9,36.53Z"/></g></g></svg>