<svg xmlns="http://www.w3.org/2000/svg" viewBox="0 0 275.81 109.59"><defs><style>.cls-1{fill:#7b54fe;}.cls-2{fill:#00498e;}.cls-3{fill:#fff;}.cls-4{fill:#37bfde;}.cls-5{fill:#3ed0f5;}</style></defs><title>Asset 8</title><g id="Layer_2" data-name="Layer 2"><g id="Layer_1-2" data-name="Layer 1"><path class="cls-1" d="M249,108H103.85l11.3-57.54H269.51A6.3,6.3,0,0,1,275.69,58L269.1,91.47A20.45,20.45,0,0,1,249,108Z"/><path class="cls-2" d="M148.57,37.06H125.13L121,46.41H116.7L134.83,6h4L157,46.41h-4.28Zm-21.82-3.7H147l-10.1-23Z"/><path class="cls-2" d="M186.78,46.41V29.9c0-5-3.34-8.89-8.37-8.89S170,24.88,170,29.9V46.41h-3.86V17.89h3.63l.18,4.45c1.84-3.58,5.36-5,8.83-5,4.1,0,8.37,1.79,10,6.58a10.8,10.8,0,0,1,10.28-6.58c7.27,0,12,4.91,12,12.41V46.41h-3.87V29.78c0-5.08-3.18-8.77-8.2-8.77s-8.43,3.87-8.43,8.89V46.41Z"/><path class="cls-2" d="M222.58,19.57a25,25,0,0,1,9.52-2.08c7.45,0,13.51,2.77,13.51,10.91v18h-3.35l-.11-5.08a12.83,12.83,0,0,1-10.85,5.6c-5.72,0-11.44-2.66-11.44-9.24s5.72-9.29,11.44-9.23a22.44,22.44,0,0,1,10.5,2.48V28.4c0-5.72-4.62-7.28-9.7-7.28a24.56,24.56,0,0,0-8.94,2Zm9.12,24c5.25,0,9.87-4.1,10.1-9.23a24,24,0,0,0-10.1-2.49c-3.87,0-8,1.22-8,5.89S228.29,43.52,231.7,43.52Z"/><path class="cls-2" d="M260.05,17.89l.23,4.68c1.84-3.81,5.65-5.14,9.06-5.14a10.3,10.3,0,0,1,6.47,2L274,22.68a8.53,8.53,0,0,0-4.91-1.5,8.8,8.8,0,0,0-8.83,9V46.41h-3.87V17.89Z"/><path class="cls-3" d="M108.17,104l10.09-50.46h9.35l-4.16,20.82h24.87l4.17-20.82h9.35L151.74,104h-9.35l4.31-21.53H121.83L117.52,104Z"/><path class="cls-3" d="M162.33,104l10.09-50.46h9.7l9.46,38.28L216,53.51h9.35L215.25,104h-8.64l7-35.14L192.92,104h-8L178,68.83,171,104Z"/><path class="cls-3" d="M225.38,101.85l1.69-8.46h0a44.11,44.11,0,0,0,16.57,2.83q11.61,0,13.16-7.77,1.14-5.64-6-5.64h-7.91q-15.48,0-12.66-14.11,3.1-15.52,25.15-15.53A46.93,46.93,0,0,1,271,55.63h0l-1.69,8.47a41.18,41.18,0,0,0-15.49-2.82q-12.71,0-14.18,7.41-1.14,5.64,5,5.64h7.9q16.47,0,13.65,14.11Q263,104.33,242,104.32a50.59,50.59,0,0,1-16.65-2.47Z"/><path class="cls-4" d="M61.76,0h0c-10,0-19.21,8.15-20.45,18.21L39,36.64H20.6C10.54,36.64,1.38,44.8.14,54.85S6,73.06,16.1,73.06H71l4.5-36.42,2.27-18.43C79,8.15,71.82,0,61.76,0Z"/><path class="cls-5" d="M109.86,54.74c1.24-10.06-5.91-18.21-16-18.21H59.55c-11.33,0-21.64,9.18-23,20.5L34.55,73,32.27,91.38c-1.24,10.06,5.91,18.21,16,18.21h0c10.06,0,19.22-8.15,20.46-18.21L71,73H89.4c10.06,0,19.21-8.16,20.46-18.21Z"/><path class="cls-3" d="M78.65,59.77,59.91,48.39c-1.82-1.11-4.38.64-4.14,2.84l2.46,22.53c.24,2.22,3.1,2.74,4.59.83l.7-.91a2.61,2.61,0,0,1,4.26-.14l2.58,4.14a2.47,2.47,0,0,0,3.56.52l2.34-1.59a2.74,2.74,0,0,0,1-3.63l-2.58-4.14a2.83,2.83,0,0,1,1.82-4l1.08-.31C79.8,63.84,80.49,60.89,78.65,59.77Z"/></g></g></svg>